<?xml version="1.0" encoding="utf-8"?>
<!-- Generator: Adobe Illustrator 19.2.1, SVG Export Plug-In . SVG Version: 6.00 Build 0)  -->
<svg version="1.1" id="Layer_1" xmlns="http://www.w3.org/2000/svg" xmlns:xlink="http://www.w3.org/1999/xlink" x="0px" y="0px"
	 viewBox="0 0 129.1 23.2" style="enable-background:new 0 0 129.1 23.2;" xml:space="preserve">
<style type="text/css">
	.st0{fill:#FFFFFF;}
</style>
<g>
	<path class="st0" d="M3.5,6.1l0.1,1.4c0.7-0.8,1.7-1.7,3.1-1.7c1.3,0,2.7,0.3,3.6,1.7c0.7-0.8,2.3-1.7,3.8-1.7
		c2.1,0,4.3,0.7,4.3,5.2v6H16v-5.3c0-2-0.3-3.5-2.1-3.5c-1.6,0-2.4,1.1-2.9,1.9c0,0.3,0,0.6,0,0.9v6H8.7v-5.3c0-2-0.3-3.5-2.1-3.5
		c-1.6,0-2.4,1.1-2.9,1.9V17H1.3V6.1H3.5z"/>
	<path class="st0" d="M29.9,17l-0.1-1.4c-0.7,1-2.1,1.6-3.4,1.6c-3.2,0-5.7-2.4-5.7-5.7c0-3.2,2.5-5.7,5.7-5.7
		c1.4,0,2.7,0.7,3.4,1.7l0.1-1.4h2.3V17H29.9z M26.5,8c-1.9,0-3.4,1.6-3.4,3.6c0,1.9,1.5,3.5,3.4,3.5s3.4-1.6,3.4-3.5
		C29.8,9.6,28.3,8,26.5,8z"/>
	<path class="st0" d="M37.5,6.1l0.1,1.4c0.7-0.8,1.9-1.7,3.3-1.7c2.1,0,4.4,0.7,4.4,5.2v6h-2.4v-5.3c0-2-0.4-3.5-2.2-3.5
		c-1.6,0-2.6,1.1-3,1.9V17h-2.4V6.1H37.5z"/>
	<path class="st0" d="M56.8,17l-0.1-1.4c-0.7,1-2.1,1.6-3.4,1.6c-3.2,0-5.7-2.4-5.7-5.7c0-3.2,2.5-5.7,5.7-5.7
		c1.4,0,2.7,0.7,3.4,1.7l0.1-1.4h2.3V17H56.8z M53.4,8C51.4,8,50,9.6,50,11.5c0,1.9,1.5,3.5,3.4,3.5s3.4-1.6,3.4-3.5
		C56.7,9.6,55.2,8,53.4,8z"/>
	<path class="st0" d="M70.2,15.8c-0.6,0.8-1.9,1.5-3.1,1.5c-3.2,0-5.4-2.4-5.4-5.7c0-3.2,2.3-5.7,5.4-5.7c1.1,0,2.4,0.5,3.1,1.5
		l0.1-1.2h2.3v10.1c0,3.2-1.5,6.1-5.4,6.1c-1.9,0-3.5-0.8-4.6-2.3l1.9-1.4c0.5,0.6,1.2,1.3,2.7,1.3c2.2,0,3-1.9,3-3.7V15.8z
		 M67.1,8.2c-1.8,0-3,1.6-3,3.4c0,1.8,1.2,3.3,3,3.3c1.8,0,3-1.5,3-3.3C70.1,9.7,68.8,8.2,67.1,8.2z"/>
	<path class="st0" d="M85.6,11.6v0.8h-8.1c0.3,1.6,1.6,2.6,3,2.6c1.3,0,2.2-0.3,2.8-1.1l1.9,1.4c-0.7,1.1-2.8,2.1-4.7,2.1
		c-3.6,0-5.4-3-5.4-5.7c0-2.8,2.1-5.8,5.4-5.8C84,5.8,85.6,9.2,85.6,11.6z M77.6,10.3h5.6c-0.2-1.2-1.4-2.1-2.7-2.1
		C79.1,8.1,77.9,9.1,77.6,10.3z"/>
	<path class="st0" d="M90.4,6.1l0.1,1.1c0.8-0.8,2-1.4,3.6-1.4v2.6c-2.1,0-3.1,1.1-3.5,2.1V17h-2.4V6.1H90.4z"/>
	<path class="st0" d="M102,17.3c-1.6,0-3.3-0.9-4.1-2.4L97.8,17h-1V2h1.1v6.2c0.8-1.5,2.5-2.4,4.1-2.4c3.2,0,5.5,2.4,5.5,5.7
		C107.5,14.9,105.2,17.3,102,17.3z M102.1,16.2c2.6,0,4.3-2.1,4.3-4.6c0-2.5-1.7-4.7-4.3-4.7c-2.4,0-4.3,2.1-4.3,4.7
		C97.8,14.1,99.5,16.2,102.1,16.2z"/>
	<path class="st0" d="M115.2,5.8c3.2,0,5.7,2.6,5.7,5.8c0,3.2-2.5,5.7-5.7,5.7c-3.2,0-5.7-2.6-5.7-5.7C109.5,8.4,112,5.8,115.2,5.8z
		 M115.2,16.2c2.6,0,4.6-2.1,4.6-4.6c0-2.6-2-4.7-4.6-4.7c-2.6,0-4.6,2.1-4.6,4.7C110.6,14.1,112.6,16.2,115.2,16.2z"/>
	<path class="st0" d="M124.6,3.6v2.5h3.4v1.1h-3.4v7.1c0,1.4,0.8,1.9,1.6,1.9c0.8,0,1-0.2,1.4-0.7c0.4,0.3,0.6,0.5,0.9,0.7
		c-0.7,0.7-1.3,1.1-2.3,1.1c-1.5,0-2.7-0.9-2.7-2.8V7.2h-1.4V6.1h1.4V3.6H124.6z"/>
</g>
</svg>
